#N canvas 611 141 490 657 10;
#X floatatom 66 97 0 0 0 0 - - -;
#X obj 34 56 notein;
#X floatatom 307 83 0 0 0 0 - - -;
#X obj 34 245 mtof;
#X obj 34 271 phasor~;
#X obj 243 627 dac~;
#X obj 243 576 *~;
#X floatatom 92 100 5 0 0 0 - - -, f 5;
#X obj 184 106 vsl 15 128 0 10 0 0 empty empty Q 0 -9 0 10 -262144
-1 -1 0 1;
#X obj 138 106 vsl 15 128 0 127 0 0 empty empty F 0 -9 0 10 -262144
-1 -1 8000 1;
#X obj 138 245 mtof;
#X msg 44 306 clear;
#X msg 185 292 \$1 50;
#X floatatom 137 355 5 0 0 0 - - -, f 5;
#X obj 34 360 vcf~;
#X obj 137 313 line;
#X obj 185 313 line;
#X msg 137 291 \$1 50;
#X floatatom 185 355 5 0 0 0 - - -, f 5;
#X obj 346 320 pack;
#X obj 307 105 moses 1;
#X obj 307 346 line~;
#X obj 307 320 pack;
#X obj 270 105 vsl 15 128 0 1000 0 0 empty empty A 0 -9 0 10 -262144
-1 -1 254 1;
#X obj 228 104 vsl 15 128 0 1000 0 0 empty empty D 0 -9 0 10 -262144
-1 -1 254 1;
#X obj 346 291 / 127;
#X floatatom 305 152 5 0 0 0 - - -, f 5;
#X floatatom 345 151 5 0 0 0 - - -, f 5;
#X obj 34 220 clip 0 127;
#X floatatom 42 97 0 0 0 0 - - -;
#X obj 138 51 * 127;
#X obj 138 24 r Cutoff;
#X msg 202 263 4;
#X obj 188 241 loadbang;
#X msg 199 50 64, f 2;
#X obj 199 25 loadbang;
#X msg 228 50 40, f 2;
#X msg 270 50 40, f 2;
#X obj 49 125 r Pitch;
#X obj 49 147 * 24;
#X obj 49 167 - 12;
#X obj 34 191 +;
#X connect 1 0 29 0;
#X connect 1 0 41 0;
#X connect 1 1 0 0;
#X connect 1 1 2 0;
#X connect 1 2 7 0;
#X connect 2 0 20 0;
#X connect 3 0 4 0;
#X connect 4 0 14 0;
#X connect 6 0 5 0;
#X connect 6 0 5 1;
#X connect 9 0 10 0;
#X connect 10 0 17 0;
#X connect 11 0 14 0;
#X connect 12 0 16 0;
#X connect 14 0 6 0;
#X connect 15 0 13 0;
#X connect 15 0 14 1;
#X connect 16 0 14 2;
#X connect 16 0 18 0;
#X connect 17 0 15 0;
#X connect 19 0 21 0;
#X connect 20 0 26 0;
#X connect 20 1 27 0;
#X connect 21 0 6 1;
#X connect 22 0 21 0;
#X connect 23 0 19 1;
#X connect 24 0 22 1;
#X connect 25 0 19 0;
#X connect 26 0 22 0;
#X connect 27 0 25 0;
#X connect 28 0 3 0;
#X connect 30 0 9 0;
#X connect 31 0 30 0;
#X connect 32 0 12 0;
#X connect 33 0 32 0;
#X connect 34 0 9 0;
#X connect 35 0 34 0;
#X connect 35 0 36 0;
#X connect 35 0 37 0;
#X connect 36 0 24 0;
#X connect 37 0 23 0;
#X connect 38 0 39 0;
#X connect 39 0 40 0;
#X connect 40 0 41 1;
#X connect 41 0 28 0;
