#N canvas 4 23 470 456 10;
#X obj 84 409 dac~;
#X obj 94 36 osc~ 440;
#X floatatom 141 90 5 0 0 0 - - -;
#X obj 18 166 *~ 0.5;
#X floatatom 201 152 5 0 0 0 - - -;
#X obj 201 126 r volume;
#X obj 175 37 r freq;
#X obj 222 228 mono-tape-echo;
#X obj 483 32 notein;
#X text 531 33 MIDI note \, velocity \, MIDI channel;
#X obj 484 60 mtof;
#X text 563 163 off;
#X floatatom 519 216 0 0 0 0 - - -;
#X obj 519 321 noteout;
#X obj 519 295 makenote 64 250;
#X obj 519 242 metro 500;
#X msg 519 189 1;
#X msg 551 189 0;
#X text 519 166 on;
#X msg 519 269 60;
#X text 568 110 outputs work similarly. They all take an optional channel
as creation argument \, and ctlin takes a control number and a channel.
You get inlets to change them in any case. IF you specify no channel
\, it's channel 1;
#X obj 521 134 print freq;
#X obj 538 401 print note?;
#X obj 514 167 print note-IN;
#X obj 725 195 midiin;
#X floatatom 725 226 0 0 0 0 - - -;
#X floatatom 756 226 0 0 0 0 - - -;
#X obj 709 290 print in1;
#X obj 785 291 print in2;
#X connect 1 0 3 0;
#X connect 2 0 1 0;
#X connect 3 0 7 0;
#X connect 4 0 3 1;
#X connect 5 0 4 0;
#X connect 6 0 2 0;
#X connect 7 0 0 0;
#X connect 7 0 0 1;
#X connect 8 0 10 0;
#X connect 8 0 23 0;
#X connect 10 0 2 0;
#X connect 10 0 21 0;
#X connect 12 0 15 0;
#X connect 14 0 13 0;
#X connect 14 0 22 0;
#X connect 14 1 13 1;
#X connect 15 0 19 0;
#X connect 16 0 12 0;
#X connect 17 0 12 0;
#X connect 19 0 14 0;
#X connect 24 0 25 0;
#X connect 24 1 26 0;
#X connect 25 0 27 0;
#X connect 26 0 28 0;
