#N canvas 691 58 428 399 10;
#X obj 78 125 dac~;
#X obj 10 111 *~ 1;
#X obj 15 20 osc~ 440;
#X obj 15 39 *~ 0.2;
#X obj 90 19 adc~ 1;
#X obj 89 65 *~ 1;
#X obj 30 74 r left;
#X obj 87 152 loadbang;
#X obj 87 174 metro 1000;
#X obj 87 195 tgl 15 0 empty empty empty 17 7 0 10 -262144 -1 -1 0
1;
#X obj 87 239 realtime;
#X obj 86 294 print PD_RUNS;
#X obj 87 216 sel 0;
#X obj 132 217 sel 1;
#X floatatom 214 193 5 0 0 0 - - -, f 5;
#X obj 258 132 r pitch;
#X connect 1 0 0 0;
#X connect 2 0 3 0;
#X connect 3 0 1 0;
#X connect 3 0 0 1;
#X connect 4 0 5 0;
#X connect 5 0 0 0;
#X connect 5 0 0 1;
#X connect 6 0 1 1;
#X connect 7 0 8 0;
#X connect 8 0 9 0;
#X connect 9 0 12 0;
#X connect 9 0 13 0;
#X connect 12 0 10 0;
#X connect 13 0 10 1;
#X connect 14 0 2 0;
#X connect 15 0 14 0;
